<?xml version="1.0" standalone="no"?>
<!DOCTYPE svg PUBLIC "-//W3C//DTD SVG 20010904//EN"
 "http://www.w3.org/TR/2001/REC-SVG-20010904/DTD/svg10.dtd">
<svg version="1.0" xmlns="http://www.w3.org/2000/svg"
 width="135.000000pt" height="135.000000pt" viewBox="0 0 135.000000 135.000000"
 preserveAspectRatio="xMidYMid meet">
<metadata>
Created by potrace 1.14, written by Peter Selinger 2001-2017
</metadata>
<g transform="translate(0.000000,135.000000) scale(0.100000,-0.100000)"
fill="#000000" stroke="none">
<path d="M548 1033 l-98 -57 0 -65 0 -66 -43 -23 c-40 -21 -42 -25 -43 -67 -1
-40 1 -43 17 -35 11 7 16 18 13 33 -3 20 7 29 69 65 l72 42 5 -262 c4 -197 8
-262 18 -266 9 -3 12 59 12 287 0 160 -3 291 -7 291 -5 0 -23 -9 -41 -20 -18
-11 -35 -20 -37 -20 -3 0 -5 20 -5 44 0 44 0 44 68 83 37 21 70 40 75 41 4 2
7 -170 7 -382 0 -336 2 -386 15 -386 18 0 17 -43 17 398 1 204 4 372 7 372 4
0 38 -19 76 -43 68 -41 70 -44 68 -81 0 -20 -3 -40 -6 -43 -3 -3 -20 5 -36 17
-17 11 -35 19 -39 16 -5 -3 -8 -130 -8 -283 1 -244 3 -278 17 -281 14 -2 15
26 15 254 -1 141 1 257 4 259 3 1 34 -14 70 -34 56 -32 65 -41 68 -68 2 -17
10 -34 18 -37 11 -4 14 4 14 39 0 41 -3 45 -40 66 -40 23 -50 41 -48 89 2 66
1 67 -94 122 -51 29 -95 54 -98 55 -3 2 -49 -23 -102 -54z"/>
<path d="M373 702 l-83 -47 0 -141 c0 -133 -1 -142 -20 -147 -22 -6 -22 -7
-23 91 l-1 62 -53 0 -53 0 0 -90 0 -90 -61 0 c-44 0 -60 -3 -57 -12 3 -9 30
-14 76 -16 l72 -3 0 91 c0 88 0 90 24 90 23 0 24 -3 24 -62 0 -97 -1 -93 34
-91 18 1 41 2 51 2 15 1 17 15 17 149 l0 148 55 31 55 32 0 -200 c0 -192 -1
-199 -20 -199 -19 0 -20 7 -20 181 0 140 -3 180 -12 177 -10 -4 -14 -54 -16
-195 l-2 -190 50 -2 c33 0 50 4 51 12 4 51 3 441 -1 452 -4 10 -25 2 -87 -33z"/>
<path d="M832 513 l3 -238 48 -1 47 -2 -2 191 c-2 141 -6 191 -15 195 -10 3
-13 -37 -13 -177 0 -174 -1 -181 -20 -181 -19 0 -20 7 -20 200 l0 201 48 -27
c26 -14 51 -30 57 -35 5 -5 9 -76 10 -157 l0 -147 50 0 50 0 0 75 c0 70 2 75
22 78 21 3 22 0 25 -85 l3 -88 73 0 c58 -1 72 2 72 15 0 12 -12 15 -60 14
l-60 -1 0 89 0 89 -52 -3 -53 -3 2 -73 c1 -58 -1 -74 -14 -79 -26 -10 -31 15
-29 149 0 72 -1 133 -4 137 -6 8 -158 101 -166 101 -2 0 -3 -107 -2 -237z"/>
</g>
</svg>
